<svg id="Capa_1" enable-background="new 0 0 512 512" height="512" viewBox="0 0 512 512" width="512" xmlns="http://www.w3.org/2000/svg"><g><path d="m297.643 434.677-93.572-93.572 120.329-163.61c35.513-48.287 105.691-53.605 148.075-11.221 42.384 42.384 37.066 112.563-11.221 148.075z" fill="#4e5660"/><path d="m324.4 177.495-120.329 163.61 93.572 93.572 74.292-54.638c2.403-10.937 3.623-22.497 3.623-34.615 0-18.951-2.982-37.619-8.864-55.486-.022-.066.028-.42.41-.691 32.223-22.908 49.256-56.505 49.256-97.158 0-19.021-4.519-37.484-13.029-54.487-29.867-.002-59.558 13.55-78.931 39.893z" fill="#3a4351"/><g fill="#3a4351"><path d="m449.146 264.686c-4.142 0-7.5-3.358-7.5-7.5v-34.488c0-4.142 3.358-7.5 7.5-7.5s7.5 3.358 7.5 7.5v34.488c0 4.143-3.357 7.5-7.5 7.5z"/><path d="m409.132 298.975c-4.142 0-7.5-3.358-7.5-7.5v-28.068c0-4.142 3.358-7.5 7.5-7.5s7.5 3.358 7.5 7.5v28.068c0 4.142-3.358 7.5-7.5 7.5z"/></g><g fill="#d2896f"><path d="m89.65 501.481c-14.025-14.025-14.025-36.765 0-50.79l42.299-42.298c14.027-14.025 36.766-14.024 50.79 0 14.025 14.025 14.025 36.765 0 50.79l-42.299 42.299c-14.025 14.023-36.764 14.026-50.79-.001z"/><path d="m255.865 501.481-42.299-42.299c-14.025-14.025-14.025-36.765 0-50.79 14.026-14.025 36.764-14.025 50.79 0l42.298 42.298c14.025 14.025 14.025 36.765 0 50.79-14.026 14.026-36.763 14.026-50.789.001z"/><path d="m54.209 53.578c16.019 16.018 44.907 28.181 56.952 16.137s-.118-40.933-16.136-56.952c-11.271-11.271-29.544-11.271-40.815 0-11.272 11.271-11.272 29.544-.001 40.815z"/><path d="m342.096 53.578c-16.018 16.018-44.907 28.181-56.952 16.137-12.045-12.045.118-40.933 16.137-56.952 11.271-11.271 29.544-11.271 40.815 0s11.271 29.544 0 40.815z"/></g><path d="m385.454 192.09c0-31.301-16.468-59.553-42.91-79.623-3.576-2.714-5.982-6.687-6.755-11.108-10.019-57.363-67.82-101.359-137.636-101.359-69.817 0-127.617 43.996-137.637 101.358-.772 4.422-3.179 8.395-6.755 11.108-26.442 20.07-42.91 48.322-42.91 79.623 0 24.564 7.508 51.53 36.257 71.968 11.319 8.047 16.179 22.402 11.841 35.596-4.735 14.4-7.297 29.786-7.297 45.77 0 80.91 65.59 117.064 146.5 117.064s146.5-36.155 146.5-117.064c0-15.985-2.563-31.37-7.297-45.77-4.338-13.193.522-27.549 11.841-35.596 28.75-20.438 36.258-47.403 36.258-71.967z" fill="#e0b799"/><path d="m47.109 264.058c11.319 8.047 16.179 22.403 11.842 35.596-4.735 14.4-7.297 29.785-7.297 45.77 0 80.91 65.59 117.064 146.5 117.064 27.952 0 54.074-4.318 76.297-13.303-138.711-13.021-177.88-108.125-166.297-167.486 1.039-5.326.402-10.852-1.924-15.754-43.71-92.107-11.149-199.581 16.216-246.788-32.689 18.173-55.908 47.769-61.926 82.182-.775 4.429-3.178 8.41-6.76 11.129-26.441 20.07-42.909 48.321-42.909 79.622.001 24.564 7.509 51.529 36.258 71.968z" fill="#d99a84"/><path d="m115.899 367.432c-6.927-7.362-13.525-15.5-18.578-22.915-9.606-14.096-5.966-33.31 8.129-42.917 14.097-9.608 33.311-5.966 42.916 8.13 3.244 4.759 7.808 10.363 12.521 15.373 11.689 12.423 11.093 31.971-1.331 43.659-12.391 11.661-31.941 11.125-43.657-1.33z" fill="#d2896f"/><path d="m236.748 368.763c-12.424-11.688-13.02-31.235-1.331-43.659 4.712-5.008 9.276-10.613 12.523-15.376 9.606-14.096 28.822-17.735 42.917-8.126 14.096 9.607 17.734 28.822 8.126 42.917-5.055 7.417-11.652 15.555-18.576 22.913-11.703 12.441-31.253 13.004-43.659 1.331z" fill="#d2896f"/><g><path d="m213.044 200.227c-8.225 0-14.892-6.667-14.892-14.892 0 8.224-6.667 14.892-14.892 14.892-2.414 0-4.685-.587-6.702-1.606v24.891c0 7.685 6.229 13.914 13.914 13.914h15.359c7.685 0 13.914-6.229 13.914-13.914v-24.891c-2.015 1.019-4.287 1.606-6.701 1.606z" fill="#fff"/><ellipse cx="114.906" cy="168.242" fill="#fff" rx="30.716" ry="24.461"/><ellipse cx="281.399" cy="168.242" fill="#fff" rx="30.716" ry="24.461"/><g fill="#4e5660"><path d="m227.936 177.835c-4.142 0-7.5 3.358-7.5 7.5 0 4.076-3.316 7.392-7.392 7.392s-7.392-3.316-7.392-7.392c0-4.142-3.358-7.5-7.5-7.5s-7.5 3.358-7.5 7.5c0 4.076-3.316 7.392-7.392 7.392s-7.392-3.316-7.392-7.392c0-4.142-3.358-7.5-7.5-7.5s-7.5 3.358-7.5 7.5c0 12.347 10.045 22.392 22.392 22.392 5.714 0 10.932-2.154 14.892-5.689 3.96 3.535 9.178 5.689 14.892 5.689 12.347 0 22.392-10.045 22.392-22.392 0-4.142-3.357-7.5-7.5-7.5z"/><path d="m148.954 141.849c-4.142 0-7.5-3.358-7.5-7.5 0-3.684-2.997-6.681-6.681-6.681s-6.681 2.997-6.681 6.681c0 4.142-3.358 7.5-7.5 7.5s-7.5-3.358-7.5-7.5c0-11.955 9.726-21.681 21.681-21.681s21.681 9.726 21.681 21.681c0 4.142-3.358 7.5-7.5 7.5z"/><path d="m275.712 141.849c-4.142 0-7.5-3.358-7.5-7.5 0-3.684-2.997-6.681-6.68-6.681s-6.681 2.997-6.681 6.681c0 4.142-3.358 7.5-7.5 7.5s-7.5-3.358-7.5-7.5c0-11.955 9.726-21.681 21.681-21.681s21.68 9.726 21.68 21.681c0 4.142-3.358 7.5-7.5 7.5z"/><path d="m210.343 135.466c-7.992-2.092-16.389-2.092-24.381 0-3.31.867-6.194 2.903-8.118 5.732-2.598 3.821-1.105 9.062 3.117 10.939l11.712 5.208c3.488 1.551 7.47 1.551 10.959 0l11.712-5.208c4.222-1.878 5.716-7.118 3.117-10.939-1.924-2.829-4.808-4.866-8.118-5.732z"/></g></g></g></svg>