<svg height="511pt" viewBox="-8 0 511 511.99884" width="511pt" xmlns="http://www.w3.org/2000/svg"><path d="m379.953125 19.539062c-46.039063-23.828124-86.347656-21.828124-113.609375-14.992187-5.730469 1.433594-11.605469 2.183594-17.515625 2.183594h-2.089844c-5.90625 0-11.78125-.75-17.511719-2.183594-27.261718-6.835937-67.570312-8.835937-113.609374 14.992187-91.292969 47.261719-126.324219 146.074219-112.03125 200.851563 0 0 21.8125-13.964844 43.292968-15.035156 0 0-51.554687 62.292969-30.074218 117.070312 0 0 21.480468-19.332031 30.074218-21.480469 0 0-15.816406 70.890626 20.554688 111.703126 0 0 9.773437-20.40625 20.921875-29 0 0 1.484375 38.667968 33.707031 68.738281 0 0 15.035156-17.183594 27.925781-22.554688 0 0 10.742188 41.890625 34.371094 52.628907 0 0 17.183594-29 31.148437-36.515626 0 0 9.503907 51.558594 32.277344 66.054688 22.773438-14.496094 32.277344-66.054688 32.277344-66.054688 13.964844 7.515626 31.148438 36.515626 31.148438 36.515626 23.628906-10.738282 34.371093-52.628907 34.371093-52.628907 12.886719 5.371094 27.925781 22.554688 27.925781 22.554688 32.222657-30.074219 33.707032-68.738281 33.707032-68.738281 11.148437 8.59375 20.921875 29 20.921875 29 36.371093-40.816407 20.554687-111.703126 20.554687-111.703126 8.59375 2.148438 30.074219 21.480469 30.074219 21.480469 21.480469-54.777343-30.074219-117.070312-30.074219-117.070312 21.480469 1.074219 43.292969 15.035156 43.292969 15.035156 14.292969-54.777344-20.738281-153.589844-112.03125-200.851563zm0 0" fill="#ff8333"/><path d="m247.785156 405.128906c107.046875 0 134.257813-68.738281 156.707032-157.527344 20.925781-108.839843-56.105469-198.34375-156.707032-142.496093-100.605468-55.847657-177.632812 33.65625-156.707031 142.496093 22.449219 88.789063 49.660156 157.527344 156.707031 157.527344zm0 0" fill="#ffd54f"/><path d="m111.679688 247.601562c-15.667969-81.507812 23.601562-152.171874 86.5625-159.0625-74.703126-7.847656-124.480469 68.984376-107.164063 159.0625 22.449219 88.789063 49.660156 157.53125 156.707031 157.53125 3.519532 0 6.949219-.082031 10.300782-.226562-98.527344-4.324219-124.695313-71.4375-146.40625-157.304688zm0 0" fill="#fabc36"/><path d="m166.691406 254.234375c-4.265625 0-7.726562 3.460937-7.726562 7.726563v14.679687c0 4.265625 3.460937 7.726563 7.726562 7.726563s7.726563-3.460938 7.726563-7.726563v-14.679687c0-4.265626-3.460938-7.726563-7.726563-7.726563zm0 0" fill="#3a484a"/><path d="m336.605469 276.640625v-14.679687c0-4.265626-3.457031-7.726563-7.726563-7.726563-4.269531 0-7.726562 3.460937-7.726562 7.726563v14.679687c0 4.265625 3.457031 7.726563 7.726562 7.726563 4.269532 0 7.726563-3.460938 7.726563-7.726563zm0 0" fill="#3a484a"/><path d="m161.402344 296.414062h-19.390625c-4.269531 0-7.726563 3.460938-7.726563 7.726563 0 4.269531 3.457032 7.726563 7.726563 7.726563h19.390625c4.265625 0 7.726562-3.457032 7.726562-7.726563 0-4.265625-3.460937-7.726563-7.726562-7.726563zm0 0" fill="#f98084"/><path d="m353.558594 296.414062h-19.390625c-4.269531 0-7.726563 3.460938-7.726563 7.726563 0 4.269531 3.457032 7.726563 7.726563 7.726563h19.390625c4.269531 0 7.726562-3.457032 7.726562-7.726563 0-4.265625-3.457031-7.726563-7.726562-7.726563zm0 0" fill="#f98084"/><path d="m247.785156 292.671875c10.273438 0 18.601563-5.179687 18.601563-11.570313 0-6.390624-37.203125-6.390624-37.203125 0 0 6.390626 8.328125 11.570313 18.601562 11.570313zm0 0" fill="#3a484a"/><path d="m275.476562 302.667969c-3.210937-2.808594-8.09375-2.480469-10.902343.734375-1.308594 1.5-3.308594 2.359375-5.484375 2.359375-2.175782 0-4.175782-.859375-5.488282-2.359375-1.453124-1.660156-3.628906-2.640625-5.832031-2.636719-2.179687.007813-4.363281.992187-5.800781 2.636719-1.3125 1.5-3.3125 2.359375-5.488281 2.359375s-4.175781-.859375-5.484375-2.359375c-2.808594-3.214844-7.691406-3.542969-10.902344-.734375-3.214844 2.808593-3.542969 7.691406-.734375 10.902343 4.246094 4.859376 10.488281 7.644532 17.121094 7.644532 4.035156 0 7.921875-1.035156 11.304687-2.9375 3.382813 1.902344 7.269532 2.9375 11.304688 2.9375 6.636718 0 12.875-2.785156 17.121094-7.644532 2.808593-3.210937 2.480468-8.09375-.734376-10.902343zm0 0" fill="#3a484a"/><path d="m110.789062 26.742188c-8.5-5.640626-18.828124-8.742188-29.910156-8.21875-25.328125 1.199218-45.949218 21.691406-47.296875 47.011718-.566406 10.632813 2.207031 20.585938 7.363281 28.90625 7.78125 12.546875 26.28125 11.535156 32.761719-1.730468 7.207031-14.757813 19.332031-26.667969 34.246094-33.59375 13.140625-6.105469 14.910156-24.363282 2.835937-32.375zm0 0" fill="#ffd54f"/><path d="m51.246094 84.136719c-5.15625-8.316407-7.929688-18.269531-7.363282-28.902344.535157-10.03125 4.105469-19.300781 9.785157-26.917969-11.53125 8.59375-19.277344 22.035156-20.085938 37.21875-.566406 10.632813 2.207031 20.585938 7.363281 28.90625 7.78125 12.546875 26.28125 11.535156 32.761719-1.730468.191407-.390626.398438-.765626.59375-1.152344-7.96875 3.265625-17.882812.921875-23.054687-7.421875zm0 0" fill="#fabc36"/><path d="m384.78125 26.742188c8.5-5.640626 18.828125-8.742188 29.910156-8.21875 25.328125 1.203124 45.949219 21.695312 47.296875 47.011718.566407 10.632813-2.207031 20.585938-7.363281 28.90625-7.78125 12.546875-26.28125 11.535156-32.761719-1.730468-7.207031-14.757813-19.332031-26.667969-34.246093-33.59375-13.140626-6.105469-14.90625-24.363282-2.835938-32.375zm0 0" fill="#ffd54f"/><path d="m395.082031 39.101562c8.5-5.640624 18.828125-8.738281 29.910157-8.214843 11.484374.542969 21.992187 5.0625 30.183593 12.191406-8.304687-14.046875-23.308593-23.738281-40.484375-24.554687-11.082031-.523438-21.414062 2.578124-29.910156 8.21875-12.066406 8.007812-10.304688 26.246093 2.8125 32.363281-1.871094-7.195313.457031-15.335938 7.488281-20.003907zm0 0" fill="#fabc36"/></svg>